#!OML:ASF F:\VICON\USERDATA\INSTALL\rory3\rory3.ASF
:FULLY-SPECIFIED
:DEGREES
493
root 4.59158 16.1253 2.25444 20.3665 -8.96776 -0.372782
lowerback 10.7392 -1.20118 1.22538
upperback 2.06282 -1.44447 0.255613
thorax -3.891 -0.72825 -0.223511
lowerneck -14.0561 -0.706899 -2.19562
upperneck 35.1241 0.0162562 -1.50029
head 14.4261 -0.532393 -0.234108
rclavicle 6.31141e-015 -2.09718e-014
rhumerus -53.1759 46.625 -65.9406
rradius 77.9022
rwrist -24.9412
rhand -8.03365 -41.6527
rfingers 7.12502
rthumb 17.8765 -70.8511
lclavicle 6.31141e-015 -2.09718e-014
lhumerus -38.3337 -55.7668 57.3094
lradius 69.5057
lwrist 47.5187
lhand -15.6679 -25.67
lfingers 7.12502
lthumb 10.5205 4.04676
rfemur -72.8029 -2.99146 21.4316
rtibia 36.4266
rfoot 37.8797 -1.08586
rtoes 6.44208
lfemur -50.2347 -0.542446 -30.0821
ltibia 54.8966
lfoot -23.0048 5.40213
ltoes 15.1085
494
root 4.58677 16.1158 2.24973 20.4719 -8.88082 -0.488342
lowerback 10.9287 -1.24627 1.31573
upperback 1.9681 -1.48634 0.326934
thorax -4.09559 -0.750499 -0.188826
lowerneck -13.5725 -0.726679 -2.60589
upperneck 34.7796 -0.0879329 -1.0141
head 14.1594 -0.560187 0.0244145
rclavicle -4.67144e-015 6.65929e-015
rhumerus -53.2916 46.837 -65.799
rradius 77.6939
rwrist -24.8386
rhand -8.35492 -41.6356
rfingers 7.12502
rthumb 17.5673 -70.8619
lclavicle -4.67144e-015 6.65929e-015
lhumerus -38.717 -55.8481 57.3971
lradius 69.2962
lwrist 47.3652
lhand -14.9708 -25.0808
lfingers 7.12502
lthumb 11.1929 4.60067
rfemur -72.9268 -3.01428 21.6
rtibia 36.4293
rfoot 38.1136 -1.16529
rtoes 6.7124
lfemur -50.4639 -0.623558 -29.8921
ltibia 55.056
lfoot -23.0472 5.39469
ltoes 15.2399
495
root 4.57925 16.102 2.24495 20.5451 -8.8428 -0.5006
lowerback 11.1275 -1.28875 1.25958
upperback 1.89654 -1.54256 0.372886
thorax -4.27837 -0.777838 -0.0957341
lowerneck -13.4226 -0.734162 -2.77959
upperneck 34.7852 -0.113915 -0.851618
head 14.1289 -0.572696 0.117108
rclavicle -1.46107e-014 7.35503e-015
rhumerus -53.3611 47.0765 -65.5697
rradius 77.6106
rwrist -24.5453
rhand -8.56786 -41.5874
rfingers 7.12502
rthumb 17.3624 -70.832
lclavicle -1.46107e-014 7.35503e-015
lhumerus -39.1319 -56.0816 57.4207
lradius 69.1454
lwrist 47.276
lhand -15.4853 -25.6125
lfingers 7.12502
lthumb 10.6966 4.09524
rfemur -73.0831 -2.97598 21.5895
rtibia 36.4797
rfoot 38.1444 -1.97369
rtoes 7.3825
lfemur -50.6774 -0.660166 -29.834
ltibia 55.2188
lfoot -23.0587 5.39937
ltoes 15.1729
496
root 4.575 16.093 2.24292 20.562 -8.86303 -0.467021
lowerback 11.3331 -1.27438 1.18783
upperback 1.83718 -1.52718 0.389392
thorax -4.45174 -0.769597 -0.0348262
lowerneck -13.7205 -0.756684 -2.59065
upperneck 35.1827 -0.0893918 -1.12747
head 14.3783 -0.580366 -0.0281759
rclavicle 3.93594e-014 -1.51076e-014
rhumerus -53.6216 47.247 -65.4711
rradius 77.4834
rwrist -24.1782
rhand -7.92312 -41.9849
rfingers 7.12502
rthumb 17.9828 -71.1736
lclavicle 3.93594e-014 -1.51076e-014
lhumerus -39.3931 -56.4706 57.3505
lradius 68.9714
lwrist 47.2434
lhand -15.9566 -26.2779
lfingers 7.12502
lthumb 10.242 3.45278
rfemur -73.2323 -2.96279 21.5577
rtibia 36.6351
rfoot 38.017 -1.94092
rtoes 6.75851
lfemur -50.805 -0.710251 -29.8443
ltibia 55.375
lfoot -23.111 5.50464
ltoes 15.1655
497
root 4.57177 16.0832 2.2399 20.5568 -8.87793 -0.375306
lowerback 11.5106 -1.24319 1.09212
upperback 1.7831 -1.49477 0.377906
thorax -4.60413 -0.752567 0.00699824
lowerneck -13.6697 -0.745939 -2.2954
upperneck 35.23 -0.0225888 -1.51586
head 14.3878 -0.565125 -0.228334
rclavicle -2.21148e-014 6.75868e-015
rhumerus -53.9545 47.2998 -65.4335
rradius 77.3774
rwrist -24.1336
rhand -7.11572 -42.7421
rfingers 7.12502
rthumb 18.7595 -71.8575
lclavicle -2.21148e-014 6.75868e-015
lhumerus -39.5315 -57.0792 57.2286
lradius 68.8143
lwrist 47.4495
lhand -15.9442 -26.1007
lfingers 7.12502
lthumb 10.254 3.62932
rfemur -73.3965 -2.98227 21.4313
rtibia 36.8536
rfoot 37.7567 -3.12158
rtoes 8.61255
lfemur -50.9161 -0.826601 -29.8965
ltibia 55.5242
lfoot -23.2252 5.59655
ltoes 15.3869
498
root 4.56531 16.0629 2.23535 20.5281 -8.81906 -0.235784
lowerback 11.8088 -1.27518 0.936225
upperback 1.65552 -1.55039 0.387588
thorax -4.89919 -0.777586 0.122351
lowerneck -13.0209 -0.69539 -2.22852
upperneck 34.89 0.079017 -1.72961
head 14.0852 -0.5352 -0.30412
rclavicle -4.91992e-015 1.59028e-015
rhumerus -54.3169 47.458 -65.3926
rradius 77.328
rwrist -24.1338
rhand -6.92917 -42.8061
rfingers 7.12502
rthumb 18.9389 -71.904
lclavicle -4.91992e-015 1.59028e-015
lhumerus -40.0121 -57.4555 57.3599
lradius 68.7089
lwrist 47.5656
lhand -15.7053 -25.8712
lfingers 7.12502
lthumb 10.4845 3.84735
rfemur -73.5734 -3.02518 21.212
rtibia 37.1175
rfoot 36.5596 -4.66285
rtoes 8.73998
lfemur -51.0224 -0.983219 -29.9736
ltibia 55.6834
lfoot -23.3223 5.59472
ltoes 15.5035
499
root 4.56189 16.0541 2.23361 20.5187 -8.74908 -0.260594
lowerback 12.1329 -1.31669 0.97693
upperback 1.51676 -1.59197 0.42703
thorax -5.22494 -0.798637 0.157367
lowerneck -12.6667 -0.660323 -2.25774
upperneck 34.8009 0.147301 -1.79928
head 13.9657 -0.516921 -0.313889
rclavicle -3.83157e-014 1.77912e-014
rhumerus -54.8273 47.7227 -65.536
rradius 77.1198
rwrist -23.9534
rhand -7.35956 -42.218
rfingers 7.12502
rthumb 18.525 -71.3559
lclavicle -3.83157e-014 1.77912e-014
lhumerus -40.6836 -57.7299 57.6224
lradius 68.603
lwrist 47.4133
lhand -16.0353 -25.996
lfingers 7.12502
lthumb 10.1661 3.73842
rfemur -73.6759 -3.08717 21.2719
rtibia 37.352
rfoot 37.4645 -3.98457
rtoes 10.0263
lfemur -51.0855 -1.07668 -29.8952
ltibia 55.7975
lfoot -23.354 5.60561
ltoes 15.5266
500
root 4.56001 16.0516 2.23471 20.534 -8.75194 -0.300428
lowerback 12.3762 -1.31391 1.03009
upperback 1.48282 -1.57737 0.42522
thorax -5.3971 -0.792593 0.129559
lowerneck -13.064 -0.637105 -1.97588
upperneck 35.1059 0.216607 -2.07106
head 14.1938 -0.492051 -0.468617
rclavicle -9.93923e-017 -3.37934e-015
rhumerus -55.1592 47.9562 -65.6817
rradius 76.7637
rwrist -24.0194
rhand -8.14403 -41.8331
rfingers 7.12502
rthumb 17.7703 -71.0411
lclavicle -9.93923e-017 -3.37934e-015
lhumerus -41.0235 -58.1124 57.6407
lradius 68.441
lwrist 47.204
lhand -16.511 -25.8891
lfingers 7.12502
lthumb 9.70719 3.86722
rfemur -73.7678 -3.12172 21.3651
rtibia 37.5379
rfoot 37.4992 -3.36847
rtoes 8.77912
lfemur -51.1477 -1.10955 -29.8327
ltibia 55.8799
lfoot -23.3678 5.7022
ltoes 15.3554
